<svg width="256" height="256" viewBox="0 0 256 256" fill="none" xmlns="http://www.w3.org/2000/svg">
  <defs>
    <linearGradient id="bg" x1="24" y1="28" x2="228" y2="226" gradientUnits="userSpaceOnUse">
      <stop offset="0" stop-color="#4EC7FF"/>
      <stop offset="0.5" stop-color="#1D95E5"/>
      <stop offset="1" stop-color="#0B5AA0"/>
    </linearGradient>
    <linearGradient id="card" x1="66" y1="60" x2="186" y2="194" gradientUnits="userSpaceOnUse">
      <stop offset="0" stop-color="#F7FCFF"/>
      <stop offset="1" stop-color="#D9EEFF"/>
    </linearGradient>
  </defs>
  <rect x="20" y="20" width="216" height="216" rx="48" fill="url(#bg)"/>
  <rect x="62" y="56" width="132" height="144" rx="22" fill="url(#card)"/>
  <path d="M89 93C89 81.9543 97.9543 73 109 73C115.88 73 121.949 76.4703 125.549 81.7543C128.181 79.9959 131.345 78.9707 134.75 78.9707C143.863 78.9707 151.25 86.3575 151.25 95.4707C151.25 95.7464 151.243 96.0206 151.23 96.2931C158.467 96.9454 164.125 103.03 164.125 110.439C164.125 118.286 157.765 124.646 149.918 124.646H108C97.5066 124.646 89 116.139 89 105.646V93Z" fill="#B9E2FF"/>
  <path d="M84 146C84 141.582 87.5817 138 92 138H164C168.418 138 172 141.582 172 146V166C172 170.418 168.418 174 164 174H92C87.5817 174 84 170.418 84 166V146Z" fill="#0E7BCA"/>
  <path d="M95 156H130" stroke="#F2FBFF" stroke-width="6" stroke-linecap="round"/>
  <path d="M140 156H160" stroke="#7CE4FF" stroke-width="6" stroke-linecap="round"/>
  <path d="M95 112H133" stroke="#1592E6" stroke-width="6" stroke-linecap="round"/>
  <path d="M95 126H145" stroke="#1592E6" stroke-width="6" stroke-linecap="round" opacity="0.72"/>
</svg>
