<svg width="256" height="256" viewBox="0 0 256 256" fill="none" xmlns="http://www.w3.org/2000/svg">
  <defs>
    <linearGradient id="bg" x1="34" y1="28" x2="218" y2="226" gradientUnits="userSpaceOnUse">
      <stop offset="0" stop-color="#53C9FF"/>
      <stop offset="0.52" stop-color="#1C97E5"/>
      <stop offset="1" stop-color="#0A5698"/>
    </linearGradient>
    <linearGradient id="cloud" x1="76" y1="76" x2="180" y2="146" gradientUnits="userSpaceOnUse">
      <stop offset="0" stop-color="#F5FBFF"/>
      <stop offset="1" stop-color="#CEE8FE"/>
    </linearGradient>
  </defs>
  <rect x="20" y="20" width="216" height="216" rx="48" fill="url(#bg)"/>
  <path d="M70 107C70 87.67 85.67 72 105 72C116.274 72 126.304 77.3311 132.704 85.6045C135.871 83.9644 139.466 83 143.286 83C155.637 83 165.725 93.0873 165.725 105.439C165.725 105.644 165.722 105.849 165.716 106.054C174.912 106.676 182.178 114.328 182.178 123.682C182.178 133.443 174.265 141.356 164.504 141.356H103C84.7746 141.356 70 126.581 70 108.356V107Z" fill="url(#cloud)"/>
  <path d="M92 173C92 167.477 96.4772 163 102 163H139V149L164 172.5L139 196V182H102C96.4772 182 92 177.523 92 172V173Z" fill="#F7FCFF"/>
  <path d="M164 92C164 97.5228 159.523 102 154 102H117V116L92 92.5L117 69V83H154C159.523 83 164 87.4772 164 93V92Z" fill="#7DE4FF"/>
  <circle cx="74" cy="178" r="8" fill="#83E1FF" fill-opacity="0.8"/>
  <circle cx="185" cy="183" r="6" fill="#83E1FF" fill-opacity="0.6"/>
</svg>
